<svg id="9ce03c11-6377-4d87-9453-61e6e151f366" data-name="Layer 1" xmlns="http://www.w3.org/2000/svg" viewBox="0 0 155.82 156.38"><defs><style>.\38 ff02db6-2f8f-44ab-8a1c-d457d2ac29f1{fill:#96044d;fill-rule:evenodd;}.\36 6567703-c833-4ebd-9347-1206b8078557{fill:#fff;}</style></defs><title>center_logo</title><path class="8ff02db6-2f8f-44ab-8a1c-d457d2ac29f1" d="M92.35,123.72v25c-8.28,6.26-13.79,12.66-20.51,18.89-4.58,4.25-9.6,8.3-14.29,12.45-0.17.16-.52,0.28-0.7,0.43-0.88.74-1.25,0.5-1.52-.61-2-8.23-4.15-16.42-6.2-24.63-1.21-4.88-2.39-9.78-3.61-14.65-0.65-2.59-1.45-5.15-2.09-7.74-1-4.16-1.95-8.34-3-12.5-1.47-6-3-11.9-4.52-17.85S33.1,90.84,31.63,85c-1.25-4.95-2.6-9.87-3.84-14.82-1.07-4.23-2-8.48-3.06-12.72-0.36-1.49-.87-3-1.08-4.47a2.74,2.74,0,0,1,.69-2.06c4.63-4.43,9.35-8.78,14-13.17,0.82-.77,1.15-0.66,1.43.44,2,8.25,4.15,16.48,6.2,24.72,1.3,5.19,2.56,10.39,3.84,15.57s2.57,10.21,3.85,15.31q3.08,12.25,6.15,24.49,2.8,11.1,5.57,22.21c0.41,1.6.75,3.2,1.15,4.8,0.26,1,.76.76,1.33,0.23l8.3-7.75,12.65-11.31A15.94,15.94,0,0,1,92.35,123.72Z" transform="translate(-23.63 -37.27)"/><path class="8ff02db6-2f8f-44ab-8a1c-d457d2ac29f1" d="M92.35,76.28V96.49c-3.31-.75-5.48-1.49-8-2.23a3.31,3.31,0,0,1-2.54-2.56c-1.07-5.13-2.36-10.22-3.47-15.34-0.21-1-.47-1.92-0.62-2.89s0.21-1.21,1.05-1c4.07,1.21,8.66,2.45,12.72,3.67C91.63,76.22,92.35,76.25,92.35,76.28Z" transform="translate(-23.63 -37.27)"/><path class="8ff02db6-2f8f-44ab-8a1c-d457d2ac29f1" d="M92.35,156.34v25.06c0,0.59-1.81,1.19-2.45,1.79-3.49,3.26-7.25,6.51-10.71,9.79a2.2,2.2,0,0,1-2.35.55c-6-1.75-12.08-3.43-18.08-5.15-1.3-.37-0.92-1-0.22-1.68l8.89-8.31c1.56-1.46,3.63-2.92,5.2-4.36C79,168.12,85.73,162.23,92.35,156.34Z" transform="translate(-23.63 -37.27)"/><path class="8ff02db6-2f8f-44ab-8a1c-d457d2ac29f1" d="M71.84,67.39c0.69,3,1.36,6.06,2.07,9.08q2.17,9.32,4.37,18.62c1.23,5.21,2.5,10.4,3.73,15.62,0.95,4,1.87,8.1,2.76,12.16a1.43,1.43,0,0,1-.3,1.15q-5.34,5.18-10.75,10.3c-1.23,1.15-2.58,2.19-3.86,3.29-0.55.47-.82,0.45-1-0.35-0.85-3.8-1.74-7.58-2.63-11.37-1-4.24-2-8.49-3-12.73-1.47-6.32-2.88-12.64-4.36-19-1-4.32-2.09-8.62-3.11-12.95-1.35-5.74-2.66-11.48-4-17.21-1-4.39-2.12-8.78-3.16-13.17-0.88-3.7-1.72-7.41-2.59-11.11-0.22-.95.25-1.07,1-0.85q3.62,1.09,7.23,2.24L69.35,46C73.7,47.33,78.59,48.7,82.95,50c3,0.92,6.09,1.8,9.4,2.72V71.89c-6.62-1.41-10.08-2.76-14.85-4.15-1.36-.4-3-0.77-4.33-1.23C72.23,66.19,71.62,66.42,71.84,67.39Z" transform="translate(-23.63 -37.27)"/><path class="66567703-c833-4ebd-9347-1206b8078557" d="M175.09,103.18c-0.19.2-.4,0.38-0.6,0.57l-47.67,44.48h0.85C115.84,159.28,102,170.33,93,181.39V156.34c9-10.36,21.66-20.72,32.91-31.1,4.61-4.25,8.72-8.57,13.32-12.83,0.78-.72.64-1.08-0.48-1.41-2.6-.76-5.3-1.55-7.9-2.36l-12.43-3.85c-5.22-1.61-9.61-3.24-14.84-4.83C99.78,98.8,94,97.65,93,96.49V76.28c1,1.28,7.59,2.56,11.81,3.86,3.05,0.94,5.65,1.93,8.7,2.87l15.7,4.87c3.31,1,6.48,2.14,9.79,3.16,3.94,1.21,7.85,2.32,11.8,3.52,8,2.45,16,4.95,24,7.38C175.82,102.25,175.67,102.58,175.09,103.18Z" transform="translate(-23.63 -37.27)"/><path class="66567703-c833-4ebd-9347-1206b8078557" d="M129.06,114.11c-3.53,3.27-7,6.56-10.55,9.85-5.6,5.21-11.15,10.48-16.8,15.64-3.19,2.92-5.76,5.6-8.92,8.55-0.22.2,0.21,0.41,0.21,0.61v-25c5-5.27,10.44-10.53,16.06-15.83a2,2,0,0,1,2.55-.67c4.8,1.51,9.41,2.92,14.22,4.37,1,0.32,2,.77,3,1.06S129.86,113.37,129.06,114.11Z" transform="translate(-23.63 -37.27)"/><path class="66567703-c833-4ebd-9347-1206b8078557" d="M178.27,98c-6.2-1.9-12.41-3.73-18.63-5.57C153.82,90.73,148,89,142.15,87.31Q136.68,85.7,131.23,84c-5.78-1.75-11.55-3.54-17.33-5.3-7.18-2.19-13.5-4.39-20.7-6.54C92.85,72.1,93,72,93,71.89V52.77c0,0.3,1.12.62,2.11,0.93,4.53,1.43,8.6,3,13.14,4.38,3.85,1.21,7.53,2.3,11.39,3.48,3.43,1,6.72,2.13,10.13,3.21,5.81,1.82,11.58,3.63,17.39,5.47,4.5,1.42,9,2.89,13.46,4.31,3.83,1.21,7.65,2.38,11.47,3.59,0.93,0.3,1.82.7,2.75,1.07,0.25,0.88.51,1.65,0.7,2.43q1.91,7.67,3.81,15.34C179.58,97.94,179.49,98.4,178.27,98Z" transform="translate(-23.63 -37.27)"/></svg>