<svg id="8d5259ed-867c-4a35-8ca3-9315df1b0a52" data-name="Layer 1" xmlns="http://www.w3.org/2000/svg" viewBox="0 0 20.96 20.96"><defs><style>.\35 24803e0-9438-41e9-99bb-a7c82a831766{fill:#96044d;}</style></defs><title>fb</title><path class="524803e0-9438-41e9-99bb-a7c82a831766" d="M20,3.34H4.73A2.82,2.82,0,0,0,1.91,6.17V21.48A2.82,2.82,0,0,0,4.73,24.3h7.55V16.81H10.35a0.46,0.46,0,0,1-.46-0.46V13.94a0.46,0.46,0,0,1,.46-0.46h1.94V11.15A3.81,3.81,0,0,1,16.35,7h2a0.46,0.46,0,0,1,.46.46v2a0.46,0.46,0,0,1-.46.46H17.12a1.31,1.31,0,0,0-1.57,1.54v2h2.89a0.46,0.46,0,0,1,.46.51l-0.29,2.41a0.46,0.46,0,0,1-.46.41H15.56v7.49H20a2.82,2.82,0,0,0,2.82-2.82V6.17A2.82,2.82,0,0,0,20,3.34h0Zm0,0" transform="translate(-1.91 -3.34)"/></svg>