<?xml version="1.0" encoding="utf-8"?>
<!-- Generator: Adobe Illustrator 16.0.0, SVG Export Plug-In . SVG Version: 6.00 Build 0)  -->
<!DOCTYPE svg PUBLIC "-//W3C//DTD SVG 1.1//EN" "http://www.w3.org/Graphics/SVG/1.1/DTD/svg11.dtd">
<svg version="1.1" id="Layer_1" xmlns="http://www.w3.org/2000/svg" xmlns:xlink="http://www.w3.org/1999/xlink" x="0px" y="0px"
	 width="115.5px" height="73.5px" viewBox="0 0 115.5 73.5" enable-background="new 0 0 115.5 73.5" xml:space="preserve">
<g>
	<path fill-rule="evenodd" clip-rule="evenodd" fill="#E9CC4F" d="M66.11,26.625c-1.039,0.962-2.072,1.931-3.106,2.897
		c-1.646,1.536-3.281,3.084-4.942,4.604c-0.938,0.859-1.947,1.646-2.878,2.514c-2.037,1.898-4.027,3.845-6.067,5.737
		c-1.348,1.252-2.748,2.445-4.125,3.664c-0.053,0.045-0.115,0.08-0.167,0.125c-0.261,0.219-0.347,0.146-0.428-0.178
		c-0.593-2.42-1.212-4.834-1.816-7.25c-0.359-1.435-0.697-2.875-1.057-4.309c-0.192-0.763-0.425-1.515-0.614-2.277
		c-0.301-1.223-0.572-2.454-0.874-3.678c-0.436-1.753-0.894-3.5-1.331-5.253c-0.428-1.719-0.833-3.444-1.265-5.161
		c-0.366-1.457-0.765-2.905-1.131-4.361c-0.314-1.244-0.6-2.496-0.9-3.744c-0.106-0.439-0.256-0.871-0.316-1.314
		c-0.026-0.192,0.064-0.473,0.203-0.605c1.365-1.304,2.753-2.584,4.129-3.876c0.241-0.227,0.337-0.195,0.42,0.131
		c0.602,2.426,1.221,4.848,1.827,7.274c0.383,1.526,0.751,3.056,1.131,4.583c0.374,1.502,0.755,3.004,1.132,4.505
		c0.604,2.401,1.208,4.803,1.812,7.206c0.547,2.177,1.095,4.355,1.64,6.534c0.118,0.47,0.221,0.943,0.338,1.412
		c0.076,0.301,0.224,0.224,0.39,0.067c0.814-0.762,1.629-1.521,2.443-2.28l3.563-3.326c1.951-1.821,3.906-3.638,5.85-5.469
		c0.271-0.257,0.52-0.308,0.875-0.198c1.411,0.445,2.832,0.858,4.25,1.289c0.309,0.094,0.606,0.227,0.916,0.309
		C66.354,26.287,66.344,26.409,66.11,26.625"/>
	<path fill-rule="evenodd" clip-rule="evenodd" fill="#64727E" d="M79.656,23.407c-0.056,0.059-0.117,0.113-0.178,0.169
		l-14.026,13.09l-0.002-0.003c-3.674,3.429-7.348,6.858-11.021,10.288c-1.027,0.959-2.056,1.914-3.074,2.879
		c-0.198,0.189-0.376,0.242-0.65,0.162c-1.764-0.516-3.535-1.01-5.301-1.518c-0.382-0.109-0.259-0.303-0.055-0.494
		c0.874-0.816,1.748-1.631,2.621-2.447c0.458-0.428,0.915-0.859,1.375-1.283c5.194-4.783,10.392-9.563,15.583-14.35
		c1.357-1.252,2.693-2.523,4.049-3.776c0.229-0.212,0.252-0.32-0.078-0.415c-0.766-0.222-1.529-0.457-2.293-0.693
		c-1.215-0.375-2.427-0.758-3.641-1.134c-1.536-0.475-3.072-0.952-4.611-1.422c-1.848-0.562-3.696-1.121-5.546-1.674
		c-0.388-0.117-0.584-0.353-0.667-0.753c-0.314-1.509-0.655-3.009-0.982-4.514c-0.063-0.282-0.12-0.565-0.164-0.852
		c-0.041-0.25,0.072-0.355,0.321-0.281c1.196,0.359,2.393,0.72,3.589,1.082c1.271,0.385,2.545,0.769,3.816,1.161
		c0.896,0.276,1.788,0.569,2.686,0.845c1.56,0.482,3.123,0.949,4.683,1.431c0.974,0.301,1.938,0.631,2.913,0.929
		c1.159,0.356,2.326,0.684,3.486,1.038c2.356,0.72,4.708,1.456,7.066,2.169C79.859,23.134,79.824,23.232,79.656,23.407"/>
	<path fill-rule="evenodd" clip-rule="evenodd" fill="#4EB866" d="M79.579,16.355c0.076,0.258,0.15,0.485,0.208,0.716
		c0.376,1.504,0.747,3.009,1.12,4.513c0.07,0.284,0.044,0.419-0.316,0.309c-1.824-0.558-3.652-1.099-5.48-1.64
		c-1.715-0.508-3.432-1.007-5.148-1.514c-1.072-0.317-2.143-0.635-3.213-0.96c-1.699-0.517-3.398-1.042-5.098-1.561
		c-2.113-0.644-4.227-1.292-6.343-1.924c-1.506-0.45-3.02-0.875-4.528-1.313c-0.399-0.116-0.801-0.228-1.194-0.363
		c-0.275-0.094-0.378-0.026-0.313,0.261c0.201,0.892,0.4,1.783,0.609,2.673c0.426,1.828,0.856,3.654,1.288,5.48
		c0.363,1.532,0.735,3.061,1.096,4.593c0.279,1.191,0.552,2.384,0.814,3.579c0.022,0.104-0.016,0.268-0.088,0.338
		c-1.046,1.018-2.1,2.03-3.163,3.031c-0.362,0.341-0.758,0.646-1.137,0.969c-0.162,0.138-0.239,0.133-0.292-0.102
		c-0.249-1.118-0.511-2.232-0.773-3.346c-0.294-1.249-0.598-2.496-0.888-3.745c-0.431-1.858-0.848-3.719-1.282-5.577
		c-0.296-1.272-0.616-2.539-0.915-3.811c-0.398-1.688-0.783-3.378-1.181-5.065c-0.305-1.293-0.624-2.583-0.93-3.875
		c-0.259-1.088-0.505-2.18-0.762-3.269c-0.065-0.277,0.072-0.313,0.281-0.25c0.709,0.214,1.418,0.435,2.125,0.658
		c1.489,0.469,2.977,0.944,4.466,1.413c1.281,0.403,2.562,0.805,3.843,1.203c1.16,0.36,2.324,0.707,3.481,1.073
		c1.332,0.423,2.657,0.873,3.992,1.29c1.135,0.355,2.281,0.675,3.418,1.023c1.007,0.307,2.008,0.63,3.013,0.945
		c1.71,0.537,3.422,1.068,5.132,1.608c1.324,0.419,2.644,0.851,3.967,1.27c1.126,0.356,2.255,0.7,3.379,1.058
		C79.04,16.13,79.303,16.248,79.579,16.355"/>
</g>
<g>
	<path fill="#263238" d="M16.217,54.687c0.908,0,1.76,0.171,2.562,0.52c0.803,0.349,1.509,0.819,2.116,1.41l-1.865,1.865
		c-0.786-0.778-1.718-1.167-2.797-1.167c-1.095,0-2.027,0.389-2.797,1.167c-0.771,0.778-1.16,1.711-1.16,2.797
		c0,1.096,0.389,2.027,1.16,2.798c0.77,0.77,1.702,1.159,2.797,1.159s2.026-0.39,2.805-1.168l1.865,1.865
		c-0.608,0.6-1.313,1.07-2.116,1.419c-0.803,0.349-1.654,0.519-2.563,0.519c-1.816,0-3.373-0.648-4.662-1.938
		c-1.289-1.289-1.938-2.846-1.938-4.662s0.649-3.372,1.938-4.67c1.289-1.298,2.846-1.945,4.662-1.945L16.217,54.687z"/>
	<path fill="#263238" d="M32.481,56.601c1.297,1.298,1.946,2.854,1.946,4.67s-0.648,3.373-1.946,4.662s-2.854,1.938-4.67,1.938
		c-1.816,0-3.373-0.648-4.662-1.938c-1.289-1.289-1.938-2.846-1.938-4.662s0.649-3.372,1.938-4.67
		c1.289-1.298,2.846-1.945,4.662-1.945C29.627,54.655,31.184,55.303,32.481,56.601 M25.014,58.457
		c-0.77,0.778-1.159,1.711-1.159,2.798c0,1.094,0.389,2.026,1.159,2.797c0.771,0.771,1.703,1.159,2.797,1.159
		c1.086,0,2.019-0.389,2.797-1.159c0.778-0.771,1.168-1.703,1.168-2.797c0-1.087-0.39-2.02-1.168-2.798
		c-0.778-0.778-1.71-1.167-2.797-1.167C26.717,57.29,25.784,57.679,25.014,58.457"/>
	<polygon fill="#263238" points="42.891,61.943 42.891,54.72 45.51,54.72 45.51,68.032 37.67,60.557 37.67,67.789 35.051,67.789 
		35.051,54.477 	"/>
	<path fill="#263238" d="M54.299,54.752l0.049,5.246v2.667c0,1.451-0.511,2.684-1.54,3.705c-1.014,1.006-2.231,1.517-3.65,1.532
		h-0.049H49.07c-1.096-0.008-2.068-0.315-2.919-0.916l1.321-2.294c0.382,0.315,0.812,0.503,1.289,0.559
		c0.114,0.017,0.22,0.024,0.325,0.024h0.023h0.033c0.098,0,0.202-0.008,0.316-0.024c0.567-0.072,1.07-0.323,1.499-0.754
		c0.52-0.511,0.779-1.127,0.779-1.849v-0.267V60.03l-0.049-5.294L54.299,54.752z"/>
	<path fill="#263238" d="M65.828,54.72v5.254V62.6c0,1.452-0.511,2.692-1.541,3.723c-1.029,1.029-2.27,1.54-3.713,1.54
		c-1.451,0-2.691-0.511-3.722-1.54c-1.029-1.03-1.54-2.271-1.54-3.723v-2.626V54.72h2.635v5.254v2.351v0.268
		c0,0.722,0.259,1.338,0.771,1.849c0.511,0.511,1.127,0.771,1.849,0.771c0.713,0,1.329-0.26,1.849-0.771
		c0.519-0.511,0.778-1.127,0.778-1.849v-0.268v-2.351V54.72H65.828z"/>
	<path fill="#263238" d="M66.776,54.704h4.249c1.256,0,2.497,0.438,3.396,1.337c0.9,0.9,1.265,1.743,1.265,3v0.405
		c0,0.974-0.275,1.687-0.827,2.465c-0.551,0.778-1.013,1.005-1.873,1.33l2.952,4.548h-3.194l-3.341-5.107v5.107h-2.619
		L66.776,54.704z M71.269,61.003c0.543,0,0.818-0.138,1.199-0.519c0.382-0.382,0.519-0.819,0.519-1.362
		c0-0.535-0.137-0.892-0.519-1.281c-0.381-0.389-1.062-0.526-1.604-0.526h-1.468v3.681L71.269,61.003z"/>
	<path fill="#263238" d="M80.179,65.771c-0.292,0.664-0.592,1.321-0.892,1.986h-2.813L82.4,54.476l5.942,13.281h-2.821
		c-0.292-0.657-0.584-1.322-0.875-1.979h-4.452L80.179,65.771z M83.575,63.468l-1.151-2.716l-1.159,2.716H83.575z"/>
	<polygon fill="#263238" points="89.366,54.385 89.026,58.716 87.022,58.716 86.692,54.385 	"/>
	<polygon fill="#263238" points="95.36,54.385 95.36,67.732 92.686,67.732 92.686,57.921 91.353,58.31 91.353,55.528 	"/>
	<polygon fill="#263238" points="106.401,54.385 102.187,67.732 99.388,67.732 102.725,57.002 99.728,57.002 99.728,58.385 
		97.053,58.385 97.053,54.385 	"/>
</g>
</svg>
