<svg id="265f7a7f-ad2f-42fc-afb5-e3979ae51917" data-name="Layer 1" xmlns="http://www.w3.org/2000/svg" viewBox="0 0 23.88 19.86"><defs><style>.db24558b-2e0c-4811-9dae-5224a04ece2d{fill:#96044d;}</style></defs><title>tweet</title><path class="db24558b-2e0c-4811-9dae-5224a04ece2d" d="M26.31,7.22a9.44,9.44,0,0,1-1.65.56A5.13,5.13,0,0,0,26,5.62a0.27,0.27,0,0,0-.39-0.31,9.5,9.5,0,0,1-2.52,1l-0.16,0a0.67,0.67,0,0,1-.44-0.17A5.15,5.15,0,0,0,19.1,4.91a5.5,5.5,0,0,0-1.63.25,5,5,0,0,0-3.36,3.59,5.49,5.49,0,0,0-.12,1.9,0.19,0.19,0,0,1,0,.14,0.19,0.19,0,0,1-.14.06h0a13.5,13.5,0,0,1-9.28-5,0.27,0.27,0,0,0-.44,0A5.15,5.15,0,0,0,4.9,12.2a4.61,4.61,0,0,1-1.17-.45,0.27,0.27,0,0,0-.4.23,5.16,5.16,0,0,0,3,4.75H6.22a4.61,4.61,0,0,1-.87-0.08A0.27,0.27,0,0,0,5,17,5.16,5.16,0,0,0,9.12,20.5,9.5,9.5,0,0,1,3.8,22.12H3.21a0.39,0.39,0,0,0-.39.3,0.41,0.41,0,0,0,.2.45,14.13,14.13,0,0,0,7.1,1.91,14.32,14.32,0,0,0,6.07-1.29,13.4,13.4,0,0,0,4.44-3.33,14.58,14.58,0,0,0,2.72-4.55,14.38,14.38,0,0,0,.92-5V10.55a0.88,0.88,0,0,1,.33-0.68,10.18,10.18,0,0,0,2-2.25,0.27,0.27,0,0,0-.33-0.4h0Zm0,0" transform="translate(-2.81 -4.91)"/></svg>